<?xml version="1.0" encoding="utf-8"?>
<!-- Generator: Adobe Illustrator 25.0.1, SVG Export Plug-In . SVG Version: 6.00 Build 0)  -->
<svg version="1.1" id="Layer_1" xmlns="http://www.w3.org/2000/svg" xmlns:xlink="http://www.w3.org/1999/xlink" x="0px" y="0px"
	 viewBox="0 0 33 40" style="enable-background:new 0 0 33 40;" xml:space="preserve">
<style type="text/css">
	.st0{fill:#F0B200;}
</style>
<g>
	<path d="M33,16.18l-4.94-8.55h-8.82L14.83,0H4.94L0,8.55l4.41,7.63L0,23.82l4.94,8.55h8.82L18.17,40h9.89L33,31.45l-4.41-7.63
		L33,16.18z M6.01,1.85h7.75l3.88,6.71l-3.88,6.71H6.01L2.13,8.55L6.01,1.85z M2.13,23.82l3.88-6.71h7.75l3.88,6.71l-3.88,6.71H6.01
		L2.13,23.82z M15.36,16.18l3.88-6.71h7.75l3.88,6.71l-3.88,6.71h-7.75L15.36,16.18z M26.99,38.15h-7.75l-3.88-6.71l3.88-6.71h7.75
		l3.88,6.71L26.99,38.15z"/>
	<g>
		<polygon class="st0" points="6.42,17.82 5.89,18.74 12.28,29.81 13.35,29.81 13.88,28.89 7.49,17.82 		"/>
		<polygon class="st0" points="16.82,23.82 13.35,17.82 11.22,17.82 15.75,25.66 		"/>
		<polygon class="st0" points="8.29,17.82 14.28,28.2 15.35,26.35 10.42,17.82 		"/>
		<polygon class="st0" points="2.96,23.82 6.42,29.81 8.55,29.81 4.02,21.97 		"/>
		<polygon class="st0" points="4.42,21.28 9.35,29.81 11.49,29.81 5.49,19.43 		"/>
	</g>
	<polygon points="17.5,16.18 20.31,11.32 25.92,11.32 28.73,16.18 25.92,21.05 20.31,21.05 	"/>
</g>
</svg>
