<?xml version="1.0" encoding="UTF-8"?>
<svg id="Layer_2" xmlns="http://www.w3.org/2000/svg" version="1.1" viewBox="0 0 244 90">
  <!-- Generator: Adobe Illustrator 30.1.0, SVG Export Plug-In . SVG Version: 2.1.1 Build 136)  -->
  <defs>
    <style>
      .st0 {
        fill: #242623;
      }

      .st1 {
        fill: #00a3b9;
      }

      .st2 {
        fill: #fe3f32;
      }
    </style>
  </defs>
  <path class="st2" d="M29.67.39C13.07.61-.21,14.15,0,30.65l30.07-.39c16.61-.22,30.24,12.98,30.46,29.48l-.79-59.74-30.07.39Z"/>
  <path class="st0" d="M30.07,30.26H0C0,46.76,13.46,60.13,30.07,60.13h30.07c0-16.5-13.46-29.87-30.07-29.87Z"/>
  <path class="st1" d="M0,30.26v59.74h30.07c16.61,0,30.07-13.37,30.07-29.87h-30.07C13.46,60.13,0,46.76,0,30.26Z"/>
  <path class="st0" d="M70.93,3.36h7.11c3.53,0,7.33.6,10.03,3.1,2.14,1.98,3.16,4.78,3.16,8.39,0,5.42-1.99,8.36-4.21,10.19-3.8,3.1-8.34,3.21-10.89,3.21h-8.27s3.08-24.88,3.08-24.88ZM76.6,8.85l-1.72,13.92h1.91c3.27,0,5-1.3,5.63-1.9,1.39-1.26,2.26-3.36,2.26-5.72,0-2.2-.71-3.88-1.8-4.89-1.35-1.23-3.16-1.41-4.55-1.41h-1.72ZM110.46,3.36l-.67,5.49h-7.37l-.52,4.14h7.14l-.67,5.45h-7.14l-.52,4.33h7.67l-.67,5.49h-14.03l3.08-24.9h13.71,0ZM130.16,5.16l-2.78,4.78c-1.69-1.26-3.05-1.83-4.4-1.83-1.72,0-2.82.82-2.82,2.16,0,1.19.64,1.79,3.2,2.99,4.13,1.94,5.56,3.69,5.56,6.98,0,5-3.98,8.51-9.58,8.51-3.01,0-5.11-.67-8.45-2.73l2.86-4.78c2.26,1.53,3.57,2.05,5.3,2.05,1.99,0,3.35-1.01,3.35-2.54,0-1.09-.56-1.68-2.93-2.84-4.47-2.24-5.78-3.84-5.78-7.21,0-4.52,3.91-7.84,9.2-7.84,2.53,0,4.82.72,7.27,2.29ZM141.25,3.36l-3.08,24.9h-6.35l3.08-24.9h6.35,0ZM156.88,14.41h12.06c-.08,2.76-.41,4.82-1.24,6.91-1.76,4.63-6.23,7.43-11.69,7.43-7.37,0-12.48-5-12.48-12.25,0-7.88,5.78-13.62,13.71-13.62,3.2,0,5.86.9,8.01,2.69,1.57,1.34,2.21,2.2,3.23,4.59l-5.52,2.13c-1.24-2.73-3.12-4.07-5.86-4.07-3.98,0-7.03,3.5-7.03,8.17,0,4.03,2.75,6.91,6.57,6.91,2.75,0,4.88-1.53,5.45-3.88h-5.82l.61-5.01ZM199.15,3.36l-3.08,24.9h-6.96l-6.65-11.16c-1.09-1.75-2.02-3.65-3.08-6.16v1.12c0,1.86-.07,3.18-.26,4.7l-1.42,11.5h-6.35l3.08-24.9h6.84l7.14,12.02,1.09,2.01.97,1.9.49.94c.04-1.56.11-2.8.3-4.25l1.54-12.62h6.35,0ZM86.14,34.54l-2.78,4.78c-1.69-1.26-3.05-1.83-4.4-1.83-1.72,0-2.82.82-2.82,2.16,0,1.19.64,1.79,3.2,2.99,4.13,1.94,5.56,3.69,5.56,6.98,0,5-3.98,8.51-9.58,8.51-3.01,0-5.11-.67-8.45-2.73l2.86-4.78c2.26,1.53,3.57,2.05,5.3,2.05,1.99,0,3.35-1.01,3.35-2.54,0-1.09-.56-1.68-2.93-2.84-4.47-2.24-5.78-3.84-5.78-7.21,0-4.52,3.91-7.84,9.2-7.84,2.54,0,4.83.72,7.27,2.29h0ZM100.67,46.75l-1.35,10.89h-6.35l1.39-11.08-6.38-13.81h7.03l1.72,3.99c1.01,2.39,1.09,2.54,1.35,3.36.08.19.15.49.26.82.34-.64.67-1.16,1.24-1.98l4.32-6.19h7.71s-10.93,14.01-10.93,14.01ZM126.96,34.54l-2.78,4.78c-1.69-1.26-3.05-1.83-4.4-1.83-1.72,0-2.82.82-2.82,2.16,0,1.19.64,1.79,3.2,2.99,4.13,1.94,5.56,3.69,5.56,6.98,0,5-3.98,8.51-9.58,8.51-3.01,0-5.11-.67-8.45-2.73l2.86-4.78c2.26,1.53,3.57,2.05,5.3,2.05,1.99,0,3.35-1.01,3.35-2.54,0-1.09-.56-1.68-2.93-2.84-4.47-2.24-5.78-3.84-5.78-7.21,0-4.52,3.91-7.84,9.2-7.84,2.53,0,4.82.72,7.27,2.29h0ZM139.07,38.23l-2.45,19.41h-6.31l2.41-19.41h-5.33l.67-5.49h17.02l-.67,5.49h-5.33,0ZM161.45,32.75l-.67,5.49h-7.37l-.52,4.14h7.14l-.67,5.45h-7.14l-.52,4.33h7.67l-.67,5.49h-14.01l3.08-24.9h13.69ZM192.8,32.75l.79,24.9h-6.35l-.3-11.16v-.79c0-1.38.07-2.31.3-4.14-.52,1.4-1.1,2.77-1.76,4.1l-6.16,11.98h-3.35l-2.14-9.63c-.52-2.35-.71-3.62-1.05-6.87-.6,3.06-.9,4.25-1.31,5.72l-3.23,10.78h-6.53l7.93-24.9h6.27l1.87,8.39c.49,2.09.82,4.14,1.12,6.53.41-1.16.97-2.54,1.42-3.4l5.9-11.53h6.58ZM215.65,34.54l-2.78,4.78c-1.69-1.26-3.05-1.83-4.4-1.83-1.72,0-2.82.82-2.82,2.16,0,1.19.64,1.79,3.2,2.99,4.13,1.94,5.56,3.69,5.56,6.98,0,5-3.98,8.51-9.58,8.51-3.01,0-5.11-.67-8.45-2.73l2.86-4.78c2.26,1.53,3.57,2.05,5.3,2.05,1.99,0,3.35-1.01,3.35-2.54,0-1.09-.56-1.68-2.93-2.84-4.47-2.24-5.78-3.84-5.78-7.21,0-4.52,3.91-7.84,9.2-7.84,2.54,0,4.83.72,7.27,2.29ZM225.04,54.28c0,2.16-1.65,3.84-3.76,3.84s-3.87-1.75-3.87-3.8,1.69-3.77,3.72-3.77c2.18,0,3.91,1.64,3.91,3.73ZM84.64,62.13l-.67,5.49h-7.37l-.52,4.14h7.14l-.67,5.45h-7.14l-.52,4.33h7.67l-.67,5.49h-14.03l3.08-24.9h13.71ZM114.23,62.13l-3.08,24.9h-6.96l-6.65-11.17c-1.09-1.75-2.02-3.65-3.08-6.16v1.12c0,1.86-.07,3.18-.26,4.7l-1.42,11.5h-6.35l3.08-24.9h6.84l7.14,12.02,1.09,2.01.97,1.9.49.94c.04-1.56.11-2.8.3-4.25l1.54-12.62h6.35v.02ZM129.93,73.17h12.06c-.08,2.76-.41,4.82-1.24,6.91-1.76,4.63-6.23,7.43-11.69,7.43-7.37,0-12.48-5-12.48-12.25,0-7.88,5.78-13.62,13.71-13.62,3.2,0,5.86.9,8.01,2.69,1.57,1.34,2.21,2.2,3.23,4.59l-5.52,2.13c-1.24-2.73-3.12-4.07-5.86-4.07-3.98,0-7.03,3.5-7.03,8.17,0,4.03,2.75,6.91,6.57,6.91,2.75,0,4.88-1.53,5.45-3.88h-5.82l.61-5.01h0ZM153.82,62.13l-3.08,24.9h-6.35l3.08-24.9s6.35,0,6.35,0ZM183.89,62.13l-3.08,24.9h-6.96l-6.65-11.16c-1.09-1.75-2.02-3.65-3.08-6.16v1.12c0,1.86-.07,3.18-.26,4.7l-1.42,11.5h-6.35l3.08-24.9h6.84l7.14,12.02,1.09,2.01.97,1.9.49.94c.04-1.56.11-2.8.3-4.25l1.54-12.62h6.35ZM203.02,62.13l-.67,5.49h-7.37l-.52,4.14h7.14l-.67,5.45h-7.14l-.52,4.33h7.67l-.67,5.49h-14.04l3.08-24.9h13.72ZM221.59,62.13l-.67,5.49h-7.37l-.52,4.14h7.14l-.67,5.45h-7.14l-.52,4.33h7.67l-.67,5.49h-14.01l3.08-24.9h13.69ZM238.14,77.35l5.86,9.67h-7.37l-5.71-9.89-1.2,9.89h-6.35l3.08-24.9h8.16c3.42,0,5.52.67,6.96,2.16,1.2,1.26,1.91,3.33,1.91,5.57s-.67,4.1-2.02,5.53c-.9.98-1.57,1.38-3.31,1.98h0ZM232.16,67.13l-.79,6.38h1.12c3.05,0,4.43-1.12,4.43-3.47,0-2.16-.9-2.91-3.57-2.91,0,0-1.19,0-1.19,0Z"/>
</svg>