<svg version="1.1" id="Layer_1" xmlns="http://www.w3.org/2000/svg" x="0" y="0" viewBox="0 0 129.36 84.54" xml:space="preserve"><style>.st0{fill:#6e5f51}.st1{fill:#af7238}.st2{fill:#bdbfc1}.st3{fill:#8e531f}.st5{fill:#3e1c09}.st6{fill:#613716}.st7{fill:#be8e61}</style><path class="st0" d="M14.63 63.57C9.62 60.89 1.54 59.21.26 55.3c-2.2-6.72 9.98-19.12 16.68-20.66 3.15-.73 5.83-3.51 8.73-5.36 4.77-1.3 3.37 3.77 5.44 5.27 1.26 2.44 1.59 5.11 1.49 7.74-.14 3.52-3.07 4.79-5.89 2.8-.85-.6-1.76-2.61-2.43-1.61-.82 1.24 1.55 1.67 2.29 2.67.48 4.46-3.07 5.21-6.02 6.45-1.46.62-4.49-.26-2.1 3.24.88 1.29-1.45 1.83-2.63 2.08-3.09.65-5.55 1.33-1.36 4.27.39.29.38.89.17 1.38z"/><path class="st1" d="M70.46 63.52c-1.71.99-3.34 2.17-5.16 2.88-.96.37-2.74.33-3.26-.28-.99-1.16-1.35-2.86-1.97-4.34.83-.23 1.82-.25 2.46-.73 1.13-.87 2.96-2.13 2.85-3.03-.22-1.78-1.25-3.72-2.53-5.01-.94-.94-2.82-.94-4.29-1.35.2-1.72 1.44-2.64 2.7-3.55.54-.3 1.11-.52 1.69-.7.7-.25 1.34-.58 1.57-1.37-.48-2.49-3.3-2.45-4.48-4.15-2.61-2.97-3.6-7.53-8.34-8.39-2.01-.98-3.45-2.26-2.57-4.79.92-1.32 2.34-2.01 3.62-2.87 3.19-1.19 6.24-.76 8.86 1.29 2.64 2.07 5.75 3.15 8.67 4.62.41.3.71.69.93 1.15.39 7.99 5.58 14.37 7.37 21.9-.12 5.31-3.99 7.13-8.12 8.72z"/><path class="st2" d="M56.74 14.53c.16-1.95.31-3.9.47-5.85 1.7.35 3.43 1.07 5.1.97 1.83-.11 3.96-.53 5.37-1.59 7.86-5.94 15.68-10.23 24.85-2.32.54.46 2.8-.1 3.42-.86 5.89-7.19 15.69-6.24 20.33 1.6.9 1.52 4.63 1.76 7.07 1.82 1.99.05 4-1.04 6.01-1.63-1.44 1.17-2.8 2.47-4.35 3.47-1.96 1.27-4.08 2.29-6.14 3.42-2.15 2.37-3.74 1.44-5.01-.9-2.76-5.09-2.75-5.1-7.82-2.6-.76.37-1.54.61-2.38.68-.7.04-1.4-.04-2.08-.19-1.5-.63-2.91-.17-4.32.39-2.95 1.16-5.83 1.28-8.45-.81-1.63-1.29-3.33-1.25-5.13-.53-4.07-1.24-5.77 3.18-9.07 3.81-2.26-.73-4.18.53-6.21 1.09-1.85.51-3.6.1-5.32-.55-2.28-1.22-2.61 1.08-3.69 2.05-1.37.41-2.2-.2-2.65-1.47z"/><path class="st1" d="M111.32 40.64c-3.89 3.42-7.79 6.83-11.68 10.27-.73.65-1.41 1.37-2.11 2.05.01-.87.05-1.74.03-2.61-.05-1.9-.12-3.8-.18-5.7-1.42.59-2.94 1.01-4.25 1.79-3.43 2.05-6.76 4.24-10.14 6.38-1.53-1.44-2.96-3-4.73-4.19.25-4.67-3.89-8.41-2.86-13.25.56-3.04 2.96-4.24 5.4-5.39.56-.24 1.16-.41 1.72-.61.53-.34.52-.87.44-1.43-.09-1.15.27-2.17.8-3.15.89-1.43 1.58-3.15 3.8-2.7 2.44 1.23 2.56 4 3.98 5.9 1.87 3.68-.17 6.32-2.41 8.87-.65.74-1.62 1.15-2.36 1.82-1.1.99-2.62 2.14-1.73 3.69.83 1.46 2.39.26 3.61.01 4.69-.95 8.21-5.24 13.42-4.71 1.9.19 2.39-1.51 3.45-2.45.93-.56 1.91-.62 2.93-.31 2.35 1.2 3.77 2.89 2.87 5.72z"/><path class="st3" d="M26.68 46.61c-1.88-1.22-3.76-2.45-5.63-3.67.54-.71 1.44-2.11 1.58-2.04 1.62.83 3.1 1.94 4.69 2.85.83.48 2.38 1.22 2.6.97.74-.85 1.41-2.09 1.42-3.19.03-2.26-.38-4.52-.62-6.78.65-2.26 2.37-2.31 4.24-2.07 2.33 1.73 4.38 2.26 5.47-1.3.64-.41 1.32-.48 2.04-.29 1.58.84 2.35 2.36 3.2 3.82.32.65.53 1.34.57 2.07-.45 3.44-2.86 5.91-4.39 8.81-.62 1.17-1.43 2.25-1.87 3.5-.64 1.83-2.1 3.96-.53 5.59 1.45 1.5 3.39-.29 5.12-.58.49-.06.94.05 1.36.32.58.9.65 1.79-.04 2.67-.1.34-.32.54-.68.6-.12.16-.24.33-.36.49-.21 1.44-.41 2.88-.62 4.31-.77.78-1.82 1.03-2.74.71-4.18-1.43-8.61-1.56-12.84-2.68-.91-1.34-.94-2.96-.45-4.27 1.33-3.63.03-6.72-1.52-9.84z"/><path class="st1" d="M103.62 9.6c4.71-2.16 10.43-7.87 11.43 3.29.03.34 2.5.46 3.83.68-.1 1.71-.2 3.41-.29 5.12.45.97 1.43 1.21 2.26 1.65.69.64 2.07 1.66 1.96 1.87-2.48 4.58-5.13 9.06-7.75 13.57-.27-.38-.46-.8-.58-1.24.03-4.07-.65-7.66-5.65-8.3-2.09-1.31-2.81 2.61-4.9 1.31-1.4-.41-2.84-.08-4.26-.22-3.79-1.61-3.67-5.2-4.17-8.42-.18-1.14-.01-2.54 1.18-3.08 1.48-.68 1.89.85 2.56 1.7.41.53.84 1.03 1.33 1.47.93.53 1.72 1.27 2.59 1.85.74.34 1.28.13 1.64-.62 1.13-2.94-1.1-4.9-2.06-7.22-.32-1.3-.02-2.43.88-3.41z"/><path class="st0" d="M28.64 59.48l15.59 3.21c.3 9.25-15.96 24.15-23.53 21.54-.22-.07-.37-.33-.55-.51.62-.49 1.22-1.37 1.87-1.41 12.84-.94 4.98-13.34 10.25-18.44-2.21-.74-4.43-1.48-6.64-2.21.37-1.61 1.24-2.52 3.01-2.18z"/><path d="M35.57 33.57c-1.62.4-3.23.79-4.85 1.19l-5.05-5.47c4.4-2.03 11.35-6.87 12.76-5.6 6.4 5.79 1.48-5.44 6.32-3.63 2.9 1.09 7.92-3.49 11.99-5.53.88.37 1.76.74 2.64 1.12 1.1.52 1.1 1.47.99 2.48-.44 1.37-1.4 2.43-2.11 3.64-1.46 2.18-4.74 2.23-5.77 4.93l-2.7 2.37c-2.58 3.19-6.34 2-9.62 2.6-1.16 1.53-2.73 2.07-4.6 1.9z" fill="#eae0d2"/><path class="st5" d="M28.64 59.48l-3.01 2.17-11 1.92c-2.02-1.39-4.04-2.79-6.05-4.18 2.57-.95 5.15-1.9 7.72-2.84.39-.14.78-.27 1.17-.4-.39-.23-.84-.39-1.14-.7-.54-.55-1.49-1.63-1.4-1.73.81-.93 1.7-1.88 2.76-2.47 2.95-1.64 5.99-3.1 9-4.63l1.95 12.86zM78.67 48.59L83 52.83c-.17 1.58-.33 3.17-.5 4.75-.82 2.15 1.19 3.12 1.94 4.62.8 1.52 1.86 2.88 2.64 4.41-.19.68-.38 1.36-.58 2.04-.59 1.74-.25 3.76-1.65 5.25-.67.37-1.34.42-2.01.03-.39.09-.79.18-1.18.26-.37-.02-.63-.2-.81-.51-1.77-1.71-3.54-3.41-5.31-5.12-1.73-1.09-3.55-2.06-4.53-4-.18-.35-.36-.69-.55-1.04 2.38-2.97 4.77-5.94 7.15-8.9.4-2-1.01-4.32 1.06-6.03z"/><path class="st3" d="M61.71 48.19l-3.16 3.46-3.09.84c-.22-.25-.41-.53-.64-.77-.86-.87-.84-3-2.61-2.47-1.25.37-.91 1.97-.97 3.11-.04.83-.03 1.67-.55 2.39-1.65 1.1-3.3 1.23-4.93-.04l-.33-.28c-1.89-3.36-.22-6.67.11-10.01.17-.65.42-1.27.69-1.88.15-.41.34-.8.52-1.2.24-.61.49-1.21.72-1.83.22-.64.5-1.26.85-1.84 2.2-3.5 4.44-3.29 6.77-.12 1.16 1.58 2.48 3.02 3.83 4.43 1.09 2.03 2.81 3.73 2.79 6.21z"/><path class="st6" d="M50.9 53.57c-.19-1.95-.53-3.91-.44-5.85.02-.32 2.72-.96 2.83-.75.9 1.75 1.49 3.66 2.17 5.53l-1.18.12c-.91 1.08-1.79 2.27-3.38.95z"/><path class="st1" d="M82.84 73.93c.59-.31 1.18-.63 1.77-.94 1.2 1.95 1.59-.05 2.3-.48-.5 3.73-.97 7.47-1.55 11.18-.06.31-.89.49-1.36.74-.01-.93.08-1.87-.04-2.78-.33-2.58-.74-5.15-1.12-7.72z"/><path class="st6" d="M111.32 40.64c-.84-1.68-1.69-3.36-2.53-5.05.15-.18.31-.35.46-.53.82-.53 1.74-.68 2.7-.7 1.18.08 2.38.15 3.07 1.35l.04.04c-.25.64-.49 1.27-.73 1.91-.19.62-.12 1.34-.69 1.81-.78.4-1.55.79-2.32 1.17z"/><path class="st0" d="M50.9 53.57l3.38-.96c-2.8 1.56-5.6 3.13-8.4 4.69l-.12-2.58c1.72-.38 3.43-.77 5.14-1.15z"/><path class="st1" d="M87.08 66.62c-1.14-1.33-2.27-2.67-3.41-4 .03-.81.22-1.53 1.09-1.85.77 1.95 1.54 3.9 2.32 5.85zM71 64.56c1.51 1.33 3.02 2.67 4.53 4-1.51-1.33-3.02-2.66-4.53-4z"/><path class="st6" d="M84.76 60.77c-.36.62-.72 1.23-1.09 1.85l-1.17-5.03c.42.71.85 1.42 1.27 2.13.25.25.48.51.71.78 0-.01.28.27.28.27zM86.9 72.51l-.66 2.82c-.55-.78-1.09-1.56-1.64-2.34.63-1.45 1.27-2.89 1.9-4.33l.25.08.26.38-.21.41c.03.99.06 1.99.1 2.98z"/><path class="st2" d="M120.85 20.33c-.75-.55-1.51-1.1-2.26-1.65.75.55 1.51 1.1 2.26 1.65z"/><path class="st0" d="M113.63 39.49c.23-.61.46-1.21.69-1.81-.23.6-.46 1.21-.69 1.81zM44.85 58.38c-.01-.27.12-.43.37-.49-.01 0-.03.35-.03.35l-.34.14z"/><path class="st1" d="M84.48 60.49c-.24-.26-.47-.52-.71-.78.23.26.47.52.71.78zM86.8 69.53c-.19-.26-.21-.52-.05-.8.1.19.22.37.3.57.01.05-.17.15-.25.23zM80.84 73.68c.27.17.54.35.81.52-.33-.08-.6-.25-.81-.52z"/><path class="st7" d="M59.36 18.64c.01-1 .01-1.99.02-2.99l-.15-3.67 3.44.66c3.43 2.19 6.24 6.56 7.61 11.67.73 2.72 3.09 5.39.13 8.16-5.98-1.92-11.96-3.85-17.93-5.77-.59-.15-1.18-.29-1.77-.44.79-.88 1.44-1.98 2.4-2.6 1.46-.95 3.14-1.57 4.72-2.33.57-.87.9-1.87 1.53-2.69z"/><path class="st3" d="M70.41 32.46c-2.08-6.8.8-15.54-7.74-19.82 4.02-.05 8.05-.1 12.07-.14-.07.52-.41.88-.75 1.22-.19.21-.35.45-.44.73.12.52.52.84.84 1.22 1.12 1.35 1.04 2.81.22 4.18-1.35 2.25-.85 4.31.01 6.62 1.12 3.03 3.41 2.54 5.72 2.54.87 0 1.59.45 1.35 1.57-1.79 1.75-3.58 3.49-5.37 5.24-2.53.92-4.24-.23-5.61-2.23-.11-.38-.21-.75-.3-1.13z"/><path class="st6" d="M70.69 33.59c1.87.74 3.75 1.48 5.62 2.23.78 4.26 1.57 8.52 2.36 12.77l-1.05 6.03C75.3 47.61 73 40.6 70.69 33.59zM58.55 42.67c-3.36-1.36-6.73-2.72-10.09-4.08-2.59-.5-1.04-2.42-1.31-3.73-.02-.43.05-.85.19-1.25.26-.34.58-.6.96-.79 1.32-.74 2.8.45 4.12-.31 2.77 3.01 5.54 6.03 8.32 9.04-.45.91-1.25 1.16-2.19 1.12z"/><path class="st5" d="M58.55 42.67c.73-.38 1.46-.75 2.19-1.13 1.62 1.98 3.24 3.97 4.86 5.95-.5.75-1.44.57-2.1.97l-1.78-.27c-1.06-1.84-2.12-3.68-3.17-5.52z"/><path class="st7" d="M52.42 32.5l-4.58 1.23c-1.82-.49-3.76-.66-5.26-1.99-.52-.02-1.05-.03-1.57-.05-.52.46-.91.37-1.15-.29 3.31-.78 6.61-1.57 9.92-2.35.88 1.16 1.76 2.31 2.64 3.45z"/><path class="st3" d="M63.49 48.46c.7-.32 1.4-.65 2.1-.97-.7.33-1.4.65-2.1.97z"/><path class="st7" d="M100.88 20.65l-4.07-3.56c1.15 3.21 2.3 6.43 3.45 9.64.56.16.96.5 1.22 1.03.78 2.34.26 4.36-1.49 6.07-4.07 1.12-4.88-2.32-6.49-4.65-1.31-3-3.52-5.69-3.26-9.24.34-2.61-.42-4.06-3.43-3.53-1.74.31-3.59.58-4.88-1.21-1.02-2.55-.55-4.72 1.64-6.45.7-.66 1.48-1.95 2.08-1.87 5.3.74 10.57 1.72 15.85 2.62.04 1.61-.51 3.17-.32 4.79.37 2.15 1.36 4.32-.3 6.36z"/><path class="st1" d="M83.57 8.76c-.31 2.26-.62 4.52-.92 6.77.36 2.27-1.32 2.3-2.8 2.55-2.8-.76-5.57-1.59-7.13-4.38.67-.4 1.34-.81 2.01-1.21 2.95-1.24 5.9-2.49 8.84-3.73z"/><path d="M99.61 13.48c.63-1.32 1.26-2.64 1.89-3.97l2.12.09.06 3.61c-1.25 1.78-2.63 1.37-4.07.27z" fill="#d9d9d9"/><path class="st6" d="M94.3 28.53c1.79 1.7 3.58 3.39 5.37 5.09 1.34-.76 2.55.03 3.81.32.84.34 1.58.81 1.91 1.72-1.29 1.08-2.42 2.52-3.9 3.16-4.29 1.86-8.67 3.53-13.11 4.99-1.71.56-3.68.36-5.53.51 1.18-2.5 2.33-5.01 3.56-7.49 1.37-2.76 2.81-5.47 4.23-8.21 1.2-1.14 2.42-1.18 3.66-.09zM72.72 13.71c2.29 1.31 4.58 2.63 6.87 3.94 1.39 2.86 4.26 4.79 5.1 8l-.93 2.85c.47.72.49 1.37-.3 1.88-.6.06-1.19.13-1.79.19-9.64.48-11.93-3.62-7.76-12.11.42-.86-.78-2.52-1.23-3.82-.26-.23-.35-.45-.26-.68.09-.23.18-.34.27-.34l.03.09z"/><path class="st3" d="M84.69 25.65c-1.7-2.67-3.4-5.33-5.1-8 1.02-.7 2.04-1.41 3.06-2.11l8.73 4.05c-.24.27-.54.38-.89.37-.54.03-.92.33-1.22.77-.38.7-.77 1.38-1.48 1.79-1.03 1.04-2.07 2.08-3.1 3.13z"/><path class="st5" d="M90.81 19.34c.17.13.36.21.57.25.97 2.98 1.95 5.96 2.92 8.94l-3.66.09-2.85-6.09c.28-.81.56-1.63.84-2.44.43-1.13 1.26-1.06 2.18-.75z"/><path class="st3" d="M105.4 35.65c-.6-.28-1.21-.55-1.81-.83-.2-1.16-.13-2.25.71-3.18.97-.61 1.62 0 2.27.6.62.84 1.58 1.31 2.29 2.05.24.35.32.74.28 1.16l-.34.13c-1.14.03-2.27.05-3.4.07zM83.46 30.38l.3-1.88c.77.4 1.54.81 2.31 1.21-.88.23-1.74.45-2.61.67z"/><path d="M47.98 34.73l.48 3.85c-.01.61-.01 1.22-.02 1.83-.09.51-.41.87-.79 1.18-.03.31-.06.63-.07.94-.29.36-.57.73-.86 1.09l-1.29 10.8-7.44 2.61c.02-2.31-.68-4.95.2-6.87 2.13-4.64 4.99-8.94 7.55-13.38.33-1.12-.15-3.12 2.24-2.05z" fill="#1e0b06"/><path class="st0" d="M39.86 31.41c.38.1.76.19 1.14.29-.63 1.87-1.25 3.75-1.88 5.62-1.18-1.25-2.37-2.5-3.55-3.75l4.29-2.16z"/><path class="st1" d="M42.58 31.75c1.75.66 3.51 1.32 5.26 1.98l-.13-.07c-1.29.22-1.33 2.25-2.94 2.02l-2.19-3.93z"/><path class="st7" d="M44.77 35.68c.98-.67 1.96-1.35 2.94-2.02l.27 1.07c-.74.69-1.48 1.38-2.22 2.08-.33-.37-.66-.75-.99-1.13z"/><path class="st0" d="M115.02 35.72l-3.68-.18c-.91-1.32-1.86-2.61-3.01-3.74-.62-.86-.93-1.82-.99-2.88.07-1.39.12-2.79 1.68-3.45 8.37-.32 6.88 5.15 6 10.25z"/><path class="st6" d="M99.61 13.48c1.36-.09 2.71-.18 4.07-.26.69 2.83 1.39 5.67 2.08 8.5-.88.81-1.67 1.92-3.1.95-.59-.68-1.19-1.35-1.78-2.03-.42-2.38-.84-4.77-1.27-7.16z"/><path class="st5" d="M109.01 25.48l-.45 4.09c-.69 1.25-.5 2.16 1 2.55.59 1.14 1.19 2.28 1.78 3.42-.74-.03-1.48-.05-2.21-.08-.21-.26-.37-.55-.48-.87-.66-.96-2.2.09-2.73-1.18-.43-.6-.86-1.19-1.29-1.79-1.44.03-2.33-.68-2.74-2.04-.14-1.39.28-2.46 1.75-2.88 1.79-.4 3.58-.81 5.37-1.22z"/><path class="st3" d="M103.64 26.7c-.39.98-.78 1.96-1.17 2.95-1.71.4-.95-1.63-1.92-1.95-.09-.32-.19-.65-.28-.97l3.37-.03zM102.66 22.67c1.03-.32 2.06-.63 3.1-.95-1.03.32-2.07.63-3.1.95z"/><path class="st2" d="M59.36 18.64c-.51.89-1.02 1.79-1.53 2.68.51-.9 1.02-1.79 1.53-2.68z"/><path class="st6" d="M47.65 41.6l.79-1.18c-.27.39-.53.79-.79 1.18zM46.73 43.64c.29-.36.57-.73.86-1.09-.29.36-.58.73-.86 1.09z"/><path class="st1" d="M72.69 13.63v0zM100.55 27.7l1.92 1.95 2.16 1.98c-.35 1.06-.69 2.13-1.04 3.19l-3.91-1.2.87-5.92z"/><path d="M90.81 19.34c-.73.25-1.46.5-2.18.74.05-.72.1-1.44.16-2.16.67.47 1.35.94 2.02 1.42z" fill="#b0acac"/><path class="st6" d="M105.92 33.41c.91.39 1.82.79 2.73 1.18-.91-.39-1.82-.78-2.73-1.18zM109.56 32.12c-.33-.85-.67-1.7-1-2.55.34.85.67 1.7 1 2.55z"/></svg>