<?xml version="1.0" encoding="utf-8"?>
<!-- Generator: Adobe Illustrator 25.0.1, SVG Export Plug-In . SVG Version: 6.00 Build 0)  -->
<svg version="1.1" id="Layer_1" xmlns="http://www.w3.org/2000/svg" xmlns:xlink="http://www.w3.org/1999/xlink" x="0px" y="0px"
	 viewBox="0 0 256 256" style="enable-background:new 0 0 256 256;" xml:space="preserve">
<style type="text/css">
	.st0{fill:#FFFFFF;}
	.st1{fill:#4B4B4B;}
	.st2{fill:#F0B200;}
</style>
<g>
	<path class="st0" d="M127.65,250.19l-18.93-32.77c-2.08-3.6-5.92-5.81-10.08-5.81H60.76c-4.16,0-8-2.22-10.08-5.81l-28.76-49.77
		c-2.08-3.6-2.08-8.04,0-11.64l18.93-32.75c2.08-3.6,2.08-8.04,0-11.64L21.92,67.23c-2.08-3.6-2.08-8.04,0-11.64L50.68,5.81
		C52.76,2.22,56.6,0,60.76,0h57.52c4.16,0,8,2.22,10.08,5.81l18.93,32.77c2.08,3.6,5.92,5.81,10.08,5.81h37.88
		c4.16,0,8,2.22,10.08,5.81l28.76,49.77c2.08,3.6,2.08,8.04,0,11.64l-18.93,32.75c-2.08,3.6-2.08,8.04,0,11.64l18.93,32.75
		c2.08,3.6,2.08,8.04,0,11.64l-28.76,49.77c-2.08,3.6-5.92,5.81-10.08,5.81h-57.52C133.57,256,129.73,253.78,127.65,250.19z"/>
	<g>
		<path class="st1" d="M224,105.8l-28.76-49.77h-51.31l-25.65-44.4H60.76L32,61.41l25.65,44.4L32,150.2l28.76,49.77h51.31
			l25.65,44.4h57.52L224,194.59l-25.65-44.4L224,105.8z M66.97,22.38h45.1l22.55,39.02l-22.55,39.02h-45.1L44.42,61.41L66.97,22.38z
			 M44.42,150.2l22.55-39.02h45.1l22.55,39.02l-22.55,39.02h-45.1L44.42,150.2z M121.38,105.8l22.55-39.02h45.1l22.55,39.02
			l-22.55,39.02h-45.1L121.38,105.8z M189.03,233.62h-45.1l-22.55-39.02l22.55-39.02h45.1l22.55,39.02L189.03,233.62z"/>
		<g>
			<polygon class="st2" points="69.36,115.31 66.25,120.68 103.47,185.09 109.68,185.09 112.78,179.72 75.56,115.31 			"/>
			<polygon class="st2" points="129.84,150.2 109.68,115.31 97.26,115.31 123.63,160.94 			"/>
			<polygon class="st2" points="80.2,115.31 115.11,175.7 121.31,164.96 92.62,115.31 			"/>
			<polygon class="st2" points="49.19,150.2 69.36,185.09 81.77,185.09 55.4,139.45 			"/>
			<polygon class="st2" points="57.72,135.44 86.41,185.09 98.83,185.09 63.93,124.69 			"/>
		</g>
		<polygon class="st1" points="133.8,105.8 150.14,77.52 182.82,77.52 199.17,105.8 182.82,134.08 150.14,134.08 		"/>
	</g>
</g>
</svg>
